<svg width="232" height="64" viewBox="0 0 232 64" fill="none" xmlns="http://www.w3.org/2000/svg">
<path fill-rule="evenodd" clip-rule="evenodd" d="M52.9412 21.647H23.2942C22.7325 21.647 22.1939 21.8701 21.7968 22.2672C21.3996 22.6644 21.1765 23.203 21.1765 23.7646C21.1765 24.3263 21.3996 24.8649 21.7968 25.262C22.1939 25.6592 22.7325 25.8823 23.2942 25.8823H36V40.7058C36 41.2674 36.2232 41.8061 36.6203 42.2032C37.0174 42.6003 37.5561 42.8234 38.1177 42.8234C38.6793 42.8234 39.218 42.6003 39.6151 42.2032C40.0122 41.8061 40.2353 41.2674 40.2353 40.7058V25.8823H52.9412C53.5029 25.8823 54.0415 25.6592 54.4386 25.262C54.8358 24.8649 55.0589 24.3263 55.0589 23.7646C55.0589 23.203 54.8358 22.6644 54.4386 22.2672C54.0415 21.8701 53.5029 21.647 52.9412 21.647ZM87.7648 38.5882H66.5883C64.9034 38.5882 63.2875 37.9188 62.0961 36.7274C60.9047 35.536 60.2353 33.9201 60.2353 32.2352C60.2353 30.5503 60.9047 28.9344 62.0961 27.743C63.2875 26.5516 64.9034 25.8823 66.5883 25.8823H87.7648C88.3264 25.8823 88.865 25.6592 89.2622 25.262C89.6593 24.8649 89.8824 24.3263 89.8824 23.7646C89.8824 23.203 89.6593 22.6644 89.2622 22.2672C88.865 21.8701 88.3264 21.647 87.7648 21.647H66.5883C63.7801 21.647 61.0869 22.7625 59.1013 24.7482C57.1156 26.7339 56 29.427 56 32.2352C56 35.0434 57.1156 37.7365 59.1013 39.7222C61.0869 41.7079 63.7801 42.8234 66.5883 42.8234H87.7648C88.3264 42.8234 88.865 42.6003 89.2622 42.2032C89.6593 41.8061 89.8824 41.2674 89.8824 40.7058C89.8824 40.1442 89.6593 39.6055 89.2622 39.2084C88.865 38.8113 88.3264 38.5882 87.7648 38.5882ZM65.0909 30.7378C65.488 30.3407 66.0266 30.1176 66.5883 30.1176H85.6095C86.1711 30.1176 86.7097 30.3407 87.1069 30.7378C87.504 31.1349 87.7271 31.6736 87.7271 32.2352C87.7271 32.7968 87.504 33.3355 87.1069 33.7326C86.7097 34.1297 86.1711 34.3529 85.6095 34.3529H66.5883C66.0266 34.3529 65.488 34.1297 65.0909 33.7326C64.6937 33.3355 64.4706 32.7968 64.4706 32.2352C64.4706 31.6736 64.6937 31.1349 65.0909 30.7378ZM126.118 42.6964C126.168 42.685 126.216 42.6692 126.264 42.6493C126.335 42.6172 126.405 42.5794 126.471 42.5364C126.759 42.3764 127.006 42.1507 127.191 41.8776L127.233 41.7929C127.291 41.7029 127.341 41.6084 127.384 41.5105C127.384 41.4843 127.395 41.4558 127.407 41.4266L127.407 41.4265C127.412 41.4138 127.417 41.401 127.421 41.3882C127.453 41.2987 127.48 41.2076 127.501 41.1152V40.9458C127.514 40.8663 127.522 40.7862 127.525 40.7058C127.531 40.6275 127.533 40.549 127.529 40.4705C127.534 40.4141 127.534 40.3575 127.529 40.3011C127.508 40.1988 127.48 40.0982 127.445 39.9999C127.433 39.9708 127.424 39.9409 127.417 39.9105C127.304 39.6347 127.134 39.3861 126.918 39.1811C123.679 36.1448 119.869 33.7836 115.708 32.2352C119.867 30.6768 123.675 28.306 126.908 25.2611C127.262 24.8724 127.459 24.3659 127.46 23.8402C127.461 23.3145 127.267 22.8071 126.915 22.4168C126.563 22.0265 126.078 21.7811 125.555 21.7284C125.032 21.6757 124.508 21.8194 124.085 22.1317L123.925 22.2776C118.523 27.3313 111.397 30.1351 104 30.1176H97.8824V23.7646C97.8824 23.203 97.6593 22.6644 97.2622 22.2672C96.865 21.8701 96.3264 21.647 95.7647 21.647C95.2031 21.647 94.6645 21.8701 94.2673 22.2672C93.8702 22.6644 93.6471 23.203 93.6471 23.7646V40.7058C93.6471 41.2674 93.8702 41.8061 94.2673 42.2032C94.6645 42.6003 95.2031 42.8234 95.7647 42.8234C96.3264 42.8234 96.865 42.6003 97.2622 42.2032C97.6593 41.8061 97.8824 41.2674 97.8824 40.7058V34.3529H104C111.392 34.3427 118.51 37.1496 123.906 42.2023L124.066 42.3482C124.1 42.3744 124.136 42.398 124.174 42.4187C124.21 42.4465 124.248 42.4717 124.287 42.494C124.362 42.5411 124.438 42.5834 124.513 42.6211L124.654 42.6776L124.889 42.7529L125.045 42.7858C125.127 42.7998 125.211 42.8093 125.294 42.814H125.407H125.454C125.539 42.8109 125.624 42.803 125.708 42.7905H125.859C125.947 42.765 126.034 42.7336 126.118 42.6964ZM134.909 42.2032C135.306 41.8061 135.529 41.2674 135.529 40.7058V23.7646C135.529 23.203 135.306 22.6644 134.909 22.2672C134.512 21.8701 133.973 21.647 133.412 21.647C132.85 21.647 132.312 21.8701 131.914 22.2672C131.517 22.6644 131.294 23.203 131.294 23.7646V40.7058C131.294 41.2674 131.517 41.8061 131.914 42.2032C132.312 42.6003 132.85 42.8234 133.412 42.8234C133.973 42.8234 134.512 42.6003 134.909 42.2032ZM162.584 21.647H149.878C147.07 21.647 144.376 22.7625 142.391 24.7482C140.405 26.7339 139.289 29.427 139.289 32.2352C139.289 35.0434 140.405 37.7365 142.391 39.7222C144.376 41.7079 147.07 42.8234 149.878 42.8234H162.584C165.392 42.8234 168.085 41.7079 170.071 39.7222C172.056 37.7365 173.172 35.0434 173.172 32.2352C173.172 29.427 172.056 26.7339 170.071 24.7482C168.085 22.7625 165.392 21.647 162.584 21.647ZM162.584 38.5882H149.878C148.193 38.5882 146.577 37.9188 145.385 36.7274C144.194 35.536 143.525 33.9201 143.525 32.2352C143.525 30.5503 144.194 28.9344 145.385 27.743C146.577 26.5516 148.193 25.8823 149.878 25.8823H162.584C164.268 25.8823 165.884 26.5516 167.076 27.743C168.267 28.9344 168.937 30.5503 168.937 32.2352C168.937 33.9201 168.267 35.536 167.076 36.7274C165.884 37.9188 164.268 38.5882 162.584 38.5882ZM210.77 41.1259C210.757 41.1678 210.744 41.2098 210.744 41.2517C210.732 41.294 210.721 41.3189 210.708 41.3512C210.701 41.3692 210.693 41.3895 210.682 41.4164C210.654 41.4917 210.607 41.5905 210.588 41.6282C210.583 41.6383 210.578 41.6484 210.572 41.6584C210.556 41.6857 210.541 41.7123 210.541 41.7364L210.499 41.7929C210.459 41.8567 210.415 41.918 210.367 41.9764C210.327 42.0287 210.285 42.0789 210.24 42.127C210.193 42.1787 210.141 42.2258 210.09 42.2682C210.069 42.2853 210.048 42.3032 210.028 42.3212C209.998 42.3478 209.968 42.3747 209.934 42.3999L209.76 42.5034C209.751 42.509 209.741 42.5147 209.731 42.5205C209.683 42.5489 209.632 42.5788 209.581 42.6023C209.538 42.622 209.493 42.6372 209.447 42.6526C209.428 42.6592 209.408 42.6658 209.388 42.6729L209.195 42.734L209.002 42.767L208.777 42.7905H208.706C208.667 42.7931 208.628 42.7931 208.588 42.7905C208.512 42.795 208.435 42.795 208.358 42.7905L208.16 42.7434L207.967 42.6823C207.907 42.6596 207.852 42.6338 207.796 42.6075C207.783 42.6011 207.769 42.5946 207.755 42.5882L207.647 42.5411L181.21 27.4117V40.7105C181.21 41.2721 180.986 41.8108 180.589 42.2079C180.192 42.605 179.654 42.8281 179.092 42.8281C178.53 42.8281 177.992 42.605 177.594 42.2079C177.197 41.8108 176.974 41.2721 176.974 40.7105V23.7693C176.972 23.7302 176.972 23.6909 176.974 23.6517C176.97 23.5749 176.97 23.4979 176.974 23.4211C176.988 23.3552 177.002 23.2893 177.021 23.2234L177.026 23.2071C177.043 23.1487 177.057 23.0995 177.082 23.0305C177.111 22.9552 177.158 22.8564 177.177 22.8187C177.182 22.8086 177.187 22.7985 177.193 22.7884C177.209 22.7612 177.224 22.7346 177.224 22.7105L177.266 22.654C177.306 22.5902 177.35 22.5289 177.398 22.4705C177.438 22.4182 177.48 22.3679 177.525 22.3199C177.553 22.2887 177.583 22.2609 177.613 22.2334C177.633 22.2154 177.652 22.1974 177.671 22.1787L177.831 22.047L178.005 21.9434C178.014 21.9378 178.024 21.9321 178.034 21.9263C178.082 21.8979 178.133 21.868 178.184 21.8446C178.197 21.8385 178.21 21.8317 178.224 21.8248C178.273 21.8 178.325 21.774 178.377 21.774L178.57 21.7129L178.762 21.6799H178.988H179.059C179.098 21.6773 179.137 21.6773 179.177 21.6799C179.253 21.6754 179.33 21.6754 179.407 21.6799L179.605 21.727L179.798 21.7882C179.858 21.8109 179.913 21.8366 179.969 21.863C179.982 21.8694 179.996 21.8758 180.01 21.8823L180.118 21.9293L206.555 37.0587V23.7646C206.555 23.203 206.779 22.6644 207.176 22.2672C207.573 21.8701 208.111 21.647 208.673 21.647C209.235 21.647 209.773 21.8701 210.17 22.2672C210.568 22.6644 210.791 23.203 210.791 23.7646V40.7058C210.793 40.745 210.793 40.7843 210.791 40.8234C210.795 40.9002 210.795 40.9772 210.791 41.054C210.786 41.078 210.778 41.102 210.77 41.1259Z" fill="#01BFA5"/>
</svg>
